<?xml version="1.0" encoding="utf-8" standalone="no"?>
<!DOCTYPE svg PUBLIC "-//W3C//DTD SVG 1.1//EN"
  "http://www.w3.org/Graphics/SVG/1.1/DTD/svg11.dtd">
<!-- Created with matplotlib (http://matplotlib.org/) -->
<svg height="108pt" version="1.1" viewBox="0 0 216 108" width="216pt" xmlns="http://www.w3.org/2000/svg" xmlns:xlink="http://www.w3.org/1999/xlink">
 <defs>
  <style type="text/css">
*{stroke-linecap:butt;stroke-linejoin:round;}
  </style>
 </defs>
 <g id="figure_1">
  <g id="patch_1">
   <path d="M 0 108 
L 216 108 
L 216 0 
L 0 0 
z
" style="fill:none;"/>
  </g>
  <g id="axes_1">
   <g id="patch_2">
    <path d="M 27 94.5 
L 194.4 94.5 
L 194.4 12.96 
L 27 12.96 
z
" style="fill:none;"/>
   </g>
   <g id="matplotlib.axis_1">
    <g id="text_1">
     <text style="font-family:DejaVu Sans;font-size:10px;font-style:normal;font-weight:400;text-anchor:middle;" transform="rotate(-0, 110.7, 106.098438)" x="110.7" y="106.098438">time/s</text>
    </g>
   </g>
   <g id="matplotlib.axis_2">
    <g id="text_2">
     <text style="font-family:DejaVu Sans;font-size:10px;font-style:normal;font-weight:400;text-anchor:middle;" transform="rotate(-90, 20.920312, 53.73)" x="20.920312" y="53.73">counts/s</text>
    </g>
   </g>
   <g id="line2d_1">
    <path clip-path="url(#pbe54b962ec)" d="M 26.8326 81.4536 
L 27 91.2384 
L 27.1674 94.5 
L 27.3348 91.2384 
L 27.5022 92.8692 
L 27.6696 87.9768 
L 27.837 89.6076 
L 28.1718 94.5 
L 28.5066 94.5 
L 28.674 92.8692 
L 28.8414 94.5 
L 29.0088 94.5 
L 29.1762 89.6076 
L 29.511 94.5 
L 29.6784 94.5 
L 29.8458 92.8692 
L 30.0132 92.8692 
L 30.1806 94.5 
L 30.6828 73.2996 
L 30.8502 73.2996 
L 31.0176 78.192 
L 31.185 86.346 
L 31.3524 58.6224 
L 31.5198 70.038 
L 31.6872 89.6076 
L 31.8546 87.9768 
L 32.1894 94.5 
L 32.3568 94.5 
L 32.5242 89.6076 
L 32.6916 94.5 
L 32.859 94.5 
L 33.0264 91.2384 
L 33.1938 94.5 
L 33.3612 92.8692 
L 33.696 92.8692 
L 33.8634 94.5 
L 34.0308 92.8692 
L 34.1982 92.8692 
L 34.3656 94.5 
L 34.533 94.5 
L 35.0352 89.6076 
L 35.2026 94.5 
L 35.37 78.192 
L 35.5374 74.9304 
L 35.7048 79.8228 
L 36.0396 55.3608 
L 36.207 53.73 
L 36.3744 60.2532 
L 36.7092 37.422 
L 36.8766 8.0676 
L 37.044 52.0992 
L 37.3788 84.7152 
L 37.5462 76.5612 
L 37.7136 84.7152 
L 38.0484 71.6688 
L 38.2158 68.4072 
L 38.3832 42.3144 
L 38.5506 35.7912 
L 38.718 73.2996 
L 38.8854 70.038 
L 39.2202 92.8692 
L 39.3876 81.4536 
L 39.555 86.346 
L 39.8898 78.192 
L 40.2246 17.8524 
L 40.392 34.1604 
L 40.5594 78.192 
L 40.7268 76.5612 
L 41.0616 94.5 
L 41.229 91.2384 
L 41.3964 94.5 
L 41.5638 92.8692 
L 41.7312 94.5 
L 41.8986 91.2384 
L 42.066 78.192 
L 42.2334 48.8376 
L 42.4008 52.0992 
L 42.5682 71.6688 
L 42.7356 76.5612 
L 43.0704 94.5 
L 43.2378 94.5 
L 43.4052 89.6076 
L 43.5726 91.2384 
L 43.74 87.9768 
L 43.9074 92.8692 
L 44.2422 92.8692 
L 44.4096 94.5 
L 44.9118 94.5 
L 45.0792 92.8692 
L 45.2466 94.5 
L 45.7488 94.5 
L 45.9162 92.8692 
L 46.0836 92.8692 
L 46.251 94.5 
L 46.4184 91.2384 
L 46.7532 94.5 
L 47.088 94.5 
L 47.2554 92.8692 
L 47.5902 92.8692 
L 47.7576 94.5 
L 47.925 86.346 
L 48.0924 87.9768 
L 48.2598 86.346 
L 48.4272 60.2532 
L 48.5946 83.0844 
L 48.762 87.9768 
L 49.0968 63.5148 
L 49.2642 60.2532 
L 49.4316 63.5148 
L 49.599 71.6688 
L 49.7664 86.346 
L 49.9338 81.4536 
L 50.1012 79.8228 
L 50.2686 61.884 
L 50.6034 79.8228 
L 50.7708 66.7764 
L 50.9382 30.8988 
L 51.1056 52.0992 
L 51.273 55.3608 
L 51.4404 81.4536 
L 51.6078 84.7152 
L 51.9426 65.1456 
L 52.2774 91.2384 
L 52.4448 84.7152 
L 52.6122 86.346 
L 52.7796 81.4536 
L 52.947 66.7764 
L 53.1144 79.8228 
L 53.2818 76.5612 
L 53.4492 43.9452 
L 53.6166 37.422 
L 53.784 71.6688 
L 54.1188 86.346 
L 54.2862 79.8228 
L 54.4536 56.9916 
L 54.621 74.9304 
L 54.7884 71.6688 
L 54.9558 74.9304 
L 55.1232 74.9304 
L 55.2906 87.9768 
L 55.6254 58.6224 
L 55.7928 53.73 
L 55.9602 78.192 
L 56.295 91.2384 
L 56.4624 84.7152 
L 56.6298 87.9768 
L 56.7972 78.192 
L 56.9646 89.6076 
L 57.132 91.2384 
L 57.2994 94.5 
L 57.4668 94.5 
L 57.969 86.346 
L 58.1364 92.8692 
L 58.3038 92.8692 
L 58.4712 94.5 
L 58.6386 87.9768 
L 58.806 61.884 
L 58.9734 71.6688 
L 59.1408 60.2532 
L 59.3082 83.0844 
L 59.643 50.4684 
L 59.8104 63.5148 
L 59.9778 61.884 
L 60.3126 92.8692 
L 60.48 89.6076 
L 60.6474 89.6076 
L 60.8148 86.346 
L 60.9822 92.8692 
L 61.1496 89.6076 
L 61.4844 71.6688 
L 61.6518 73.2996 
L 61.9866 89.6076 
L 62.154 89.6076 
L 62.3214 73.2996 
L 62.4888 92.8692 
L 62.6562 92.8692 
L 62.8236 91.2384 
L 62.991 94.5 
L 63.6606 94.5 
L 63.828 92.8692 
L 64.1628 92.8692 
L 64.3302 91.2384 
L 64.4976 94.5 
L 64.665 94.5 
L 64.8324 92.8692 
L 64.9998 92.8692 
L 65.1672 94.5 
L 65.3346 94.5 
L 65.502 92.8692 
L 65.8368 92.8692 
L 66.0042 87.9768 
L 66.1716 94.5 
L 66.339 92.8692 
L 66.5064 86.346 
L 66.6738 92.8692 
L 66.8412 86.346 
L 67.0086 65.1456 
L 67.5108 84.7152 
L 67.6782 83.0844 
L 67.8456 94.5 
L 68.013 92.8692 
L 68.1804 94.5 
L 68.3478 94.5 
L 68.5152 89.6076 
L 68.6826 91.2384 
L 68.85 89.6076 
L 69.1848 94.5 
L 69.3522 92.8692 
L 69.5196 83.0844 
L 70.1892 94.5 
L 70.3566 92.8692 
L 70.524 84.7152 
L 70.6914 86.346 
L 70.8588 86.346 
L 71.1936 91.2384 
L 71.361 91.2384 
L 71.5284 76.5612 
L 71.6958 87.9768 
L 71.8632 87.9768 
L 72.0306 74.9304 
L 72.198 73.2996 
L 72.3654 68.4072 
L 72.5328 52.0992 
L 72.7002 65.1456 
L 72.8676 66.7764 
L 73.035 39.0528 
L 73.2024 43.9452 
L 73.5372 79.8228 
L 73.7046 30.8988 
L 74.0394 65.1456 
L 74.2068 73.2996 
L 74.3742 71.6688 
L 74.709 86.346 
L 74.8764 73.2996 
L 75.0438 91.2384 
L 75.3786 76.5612 
L 75.546 79.8228 
L 75.7134 73.2996 
L 75.8808 58.6224 
L 76.0482 86.346 
L 76.2156 79.8228 
L 76.383 87.9768 
L 76.5504 89.6076 
L 76.8852 68.4072 
L 77.0526 83.0844 
L 77.22 84.7152 
L 77.5548 73.2996 
L 77.7222 70.038 
L 77.8896 61.884 
L 78.2244 87.9768 
L 78.3918 86.346 
L 78.5592 86.346 
L 78.894 91.2384 
L 79.0614 78.192 
L 79.2288 87.9768 
L 79.3962 78.192 
L 79.5636 76.5612 
L 79.731 47.2068 
L 79.8984 47.2068 
L 80.0658 48.8376 
L 80.2332 70.038 
L 80.4006 40.6836 
L 80.568 53.73 
L 80.7354 37.422 
L 80.9028 60.2532 
L 81.0702 39.0528 
L 81.2376 47.2068 
L 81.5724 83.0844 
L 81.7398 91.2384 
L 81.9072 89.6076 
L 82.0746 91.2384 
L 82.242 83.0844 
L 82.4094 92.8692 
L 82.5768 92.8692 
L 82.7442 94.5 
L 82.9116 89.6076 
L 83.079 92.8692 
L 83.2464 91.2384 
L 83.5812 91.2384 
L 83.7486 94.5 
L 84.0834 94.5 
L 84.4182 91.2384 
L 84.5856 92.8692 
L 84.753 92.8692 
L 84.9204 89.6076 
L 85.0878 91.2384 
L 85.4226 71.6688 
L 85.59 87.9768 
L 85.7574 83.0844 
L 85.9248 91.2384 
L 86.0922 92.8692 
L 86.5944 81.4536 
L 87.0966 60.2532 
L 87.264 65.1456 
L 87.5988 92.8692 
L 87.7662 84.7152 
L 87.9336 83.0844 
L 88.101 83.0844 
L 88.6032 73.2996 
L 88.938 81.4536 
L 89.2728 66.7764 
L 89.4402 70.038 
L 89.6076 43.9452 
L 89.9424 76.5612 
L 90.1098 48.8376 
L 90.2772 53.73 
L 90.612 81.4536 
L 90.7794 83.0844 
L 90.9468 78.192 
L 91.1142 87.9768 
L 91.2816 71.6688 
L 91.7838 91.2384 
L 91.9512 89.6076 
L 92.1186 89.6076 
L 92.286 83.0844 
L 92.4534 81.4536 
L 92.6208 84.7152 
L 92.7882 58.6224 
L 92.9556 84.7152 
L 93.2904 92.8692 
L 93.4578 94.5 
L 93.6252 92.8692 
L 93.7926 92.8692 
L 93.96 84.7152 
L 94.1274 87.9768 
L 94.2948 83.0844 
L 94.4622 81.4536 
L 94.6296 91.2384 
L 94.9644 94.5 
L 95.2992 86.346 
L 95.634 94.5 
L 95.9688 79.8228 
L 96.1362 91.2384 
L 96.3036 87.9768 
L 96.471 87.9768 
L 96.6384 83.0844 
L 96.8058 94.5 
L 96.9732 94.5 
L 97.1406 92.8692 
L 97.308 92.8692 
L 97.4754 94.5 
L 97.6428 94.5 
L 97.8102 92.8692 
L 97.9776 92.8692 
L 98.145 94.5 
L 98.3124 89.6076 
L 98.4798 94.5 
L 98.6472 94.5 
L 98.8146 89.6076 
L 98.982 94.5 
L 99.3168 94.5 
L 99.4842 89.6076 
L 99.6516 81.4536 
L 99.819 79.8228 
L 99.9864 61.884 
L 100.1538 58.6224 
L 100.3212 63.5148 
L 100.4886 65.1456 
L 100.656 92.8692 
L 100.8234 73.2996 
L 101.1582 92.8692 
L 101.3256 92.8692 
L 101.493 94.5 
L 101.8278 94.5 
L 101.9952 92.8692 
L 102.4974 92.8692 
L 102.6648 94.5 
L 102.8322 92.8692 
L 103.167 68.4072 
L 103.5018 94.5 
L 104.004 78.192 
L 104.1714 63.5148 
L 104.3388 73.2996 
L 104.6736 56.9916 
L 105.0084 78.192 
L 105.3432 66.7764 
L 105.678 86.346 
L 105.8454 87.9768 
L 106.0128 92.8692 
L 106.1802 94.5 
L 106.3476 78.192 
L 106.515 87.9768 
L 106.6824 66.7764 
L 107.0172 86.346 
L 107.1846 87.9768 
L 107.352 92.8692 
L 107.5194 91.2384 
L 107.6868 87.9768 
L 108.0216 92.8692 
L 108.189 89.6076 
L 108.3564 91.2384 
L 108.5238 91.2384 
L 108.6912 94.5 
L 108.8586 87.9768 
L 109.026 55.3608 
L 109.1934 58.6224 
L 109.3608 52.0992 
L 109.863 94.5 
L 110.3652 56.9916 
L 110.7 84.7152 
L 110.8674 87.9768 
L 111.0348 84.7152 
L 111.2022 84.7152 
L 111.3696 60.2532 
L 111.537 74.9304 
L 111.7044 78.192 
L 111.8718 55.3608 
L 112.0392 79.8228 
L 112.2066 81.4536 
L 112.374 89.6076 
L 112.7088 56.9916 
L 112.8762 68.4072 
L 113.0436 70.038 
L 113.211 58.6224 
L 113.3784 78.192 
L 113.5458 58.6224 
L 113.7132 71.6688 
L 113.8806 50.4684 
L 114.048 60.2532 
L 114.2154 53.73 
L 114.3828 63.5148 
L 114.5502 40.6836 
L 114.7176 45.576 
L 114.885 43.9452 
L 115.0524 68.4072 
L 115.2198 70.038 
L 115.3872 68.4072 
L 115.5546 92.8692 
L 115.722 94.5 
L 115.8894 91.2384 
L 116.2242 78.192 
L 116.3916 87.9768 
L 116.559 84.7152 
L 116.8938 92.8692 
L 117.0612 94.5 
L 117.396 94.5 
L 117.5634 92.8692 
L 117.7308 86.346 
L 117.8982 94.5 
L 118.0656 91.2384 
L 118.233 94.5 
L 118.4004 94.5 
L 118.9026 89.6076 
L 119.07 84.7152 
L 119.2374 73.2996 
L 119.5722 94.5 
L 119.7396 89.6076 
L 119.907 94.5 
L 120.0744 91.2384 
L 120.2418 91.2384 
L 120.4092 86.346 
L 120.5766 86.346 
L 120.744 94.5 
L 120.9114 92.8692 
L 121.0788 94.5 
L 121.2462 89.6076 
L 121.581 86.346 
L 121.9158 92.8692 
L 122.0832 87.9768 
L 122.2506 79.8228 
L 122.418 81.4536 
L 122.5854 91.2384 
L 122.7528 91.2384 
L 122.9202 86.346 
L 123.0876 65.1456 
L 123.255 63.5148 
L 123.5898 47.2068 
L 123.7572 55.3608 
L 123.9246 56.9916 
L 124.092 50.4684 
L 124.2594 68.4072 
L 124.4268 70.038 
L 124.5942 48.8376 
L 124.7616 47.2068 
L 124.929 60.2532 
L 125.0964 55.3608 
L 125.2638 66.7764 
L 125.4312 87.9768 
L 125.5986 91.2384 
L 125.766 63.5148 
L 125.9334 73.2996 
L 126.1008 53.73 
L 126.4356 87.9768 
L 126.603 45.576 
L 126.7704 39.0528 
L 126.9378 16.2216 
L 127.1052 43.9452 
L 127.2726 22.7448 
L 127.44 65.1456 
L 127.9422 87.9768 
L 128.1096 87.9768 
L 128.4444 63.5148 
L 128.6118 84.7152 
L 128.7792 87.9768 
L 128.9466 94.5 
L 129.114 87.9768 
L 129.2814 89.6076 
L 129.4488 89.6076 
L 129.6162 92.8692 
L 129.7836 87.9768 
L 129.951 94.5 
L 130.4532 89.6076 
L 130.788 89.6076 
L 130.9554 87.9768 
L 131.1228 91.2384 
L 131.7924 91.2384 
L 132.1272 87.9768 
L 132.2946 94.5 
L 132.462 92.8692 
L 132.6294 94.5 
L 132.7968 91.2384 
L 132.9642 94.5 
L 133.299 91.2384 
L 133.4664 94.5 
L 133.6338 91.2384 
L 133.8012 92.8692 
L 133.9686 92.8692 
L 134.136 91.2384 
L 134.3034 92.8692 
L 134.4708 86.346 
L 134.6382 86.346 
L 134.8056 81.4536 
L 135.3078 92.8692 
L 135.4752 91.2384 
L 135.6426 94.5 
L 136.1448 94.5 
L 136.3122 91.2384 
L 136.4796 91.2384 
L 136.647 89.6076 
L 136.8144 78.192 
L 137.1492 92.8692 
L 137.3166 78.192 
L 137.484 81.4536 
L 137.6514 60.2532 
L 137.8188 63.5148 
L 137.9862 78.192 
L 138.1536 78.192 
L 138.321 66.7764 
L 138.4884 68.4072 
L 138.6558 83.0844 
L 138.8232 83.0844 
L 138.9906 92.8692 
L 139.158 86.346 
L 139.3254 74.9304 
L 139.4928 92.8692 
L 139.6602 81.4536 
L 139.8276 79.8228 
L 139.995 76.5612 
L 140.1624 89.6076 
L 140.3298 87.9768 
L 140.4972 63.5148 
L 140.6646 58.6224 
L 140.832 84.7152 
L 140.9994 86.346 
L 141.1668 81.4536 
L 141.3342 68.4072 
L 141.5016 79.8228 
L 141.669 74.9304 
L 141.8364 74.9304 
L 142.0038 78.192 
L 142.3386 56.9916 
L 142.506 63.5148 
L 142.6734 87.9768 
L 143.0082 92.8692 
L 143.1756 89.6076 
L 143.343 89.6076 
L 143.6778 92.8692 
L 144.0126 81.4536 
L 144.18 52.0992 
L 144.3474 63.5148 
L 144.5148 94.5 
L 144.6822 87.9768 
L 144.8496 89.6076 
L 145.017 89.6076 
L 145.1844 91.2384 
L 145.3518 89.6076 
L 145.5192 91.2384 
L 145.6866 63.5148 
L 146.1888 37.422 
L 146.3562 43.9452 
L 146.5236 73.2996 
L 146.691 73.2996 
L 146.8584 71.6688 
L 147.0258 71.6688 
L 147.1932 56.9916 
L 147.3606 52.0992 
L 147.528 73.2996 
L 147.8628 43.9452 
L 148.0302 79.8228 
L 148.1976 74.9304 
L 148.365 78.192 
L 148.5324 76.5612 
L 148.6998 63.5148 
L 148.8672 61.884 
L 149.0346 56.9916 
L 149.202 83.0844 
L 149.3694 83.0844 
L 149.5368 40.6836 
L 149.8716 55.3608 
L 150.039 53.73 
L 150.2064 65.1456 
L 150.3738 58.6224 
L 150.5412 42.3144 
L 150.876 63.5148 
L 151.0434 50.4684 
L 151.2108 50.4684 
L 151.3782 78.192 
L 151.5456 32.5296 
L 151.713 56.9916 
L 152.2152 65.1456 
L 152.3826 53.73 
L 152.55 84.7152 
L 152.8848 92.8692 
L 153.0522 91.2384 
L 153.387 86.346 
L 153.5544 87.9768 
L 153.7218 81.4536 
L 153.8892 60.2532 
L 154.224 76.5612 
L 154.3914 79.8228 
L 154.5588 78.192 
L 154.7262 81.4536 
L 154.8936 79.8228 
L 155.061 74.9304 
L 155.2284 87.9768 
L 155.3958 87.9768 
L 155.5632 89.6076 
L 155.898 86.346 
L 156.0654 91.2384 
L 156.2328 91.2384 
L 156.4002 92.8692 
L 156.5676 83.0844 
L 156.735 86.346 
L 156.9024 94.5 
L 157.0698 91.2384 
L 157.2372 92.8692 
L 157.4046 91.2384 
L 157.7394 83.0844 
L 157.9068 56.9916 
L 158.0742 65.1456 
L 158.2416 60.2532 
L 158.5764 42.3144 
L 158.7438 53.73 
L 158.9112 40.6836 
L 159.5808 81.4536 
L 159.9156 56.9916 
L 160.083 71.6688 
L 160.2504 68.4072 
L 160.4178 76.5612 
L 160.5852 66.7764 
L 160.7526 86.346 
L 160.92 91.2384 
L 161.0874 84.7152 
L 161.2548 87.9768 
L 161.4222 83.0844 
L 161.5896 73.2996 
L 161.757 56.9916 
L 162.0918 76.5612 
L 162.2592 84.7152 
L 162.594 76.5612 
L 162.7614 83.0844 
L 162.9288 76.5612 
L 163.2636 87.9768 
L 163.5984 81.4536 
L 163.7658 83.0844 
L 164.1006 91.2384 
L 164.4354 55.3608 
L 164.6028 87.9768 
L 164.7702 81.4536 
L 165.105 92.8692 
L 165.4398 84.7152 
L 165.6072 83.0844 
L 165.7746 79.8228 
L 165.942 68.4072 
L 166.1094 74.9304 
L 166.2768 74.9304 
L 166.4442 86.346 
L 166.6116 66.7764 
L 166.779 79.8228 
L 166.9464 81.4536 
L 167.1138 66.7764 
L 167.2812 63.5148 
L 167.4486 94.5 
L 167.7834 94.5 
L 168.1182 83.0844 
L 168.2856 89.6076 
L 168.453 86.346 
L 168.6204 87.9768 
L 168.7878 76.5612 
L 168.9552 89.6076 
L 169.1226 83.0844 
L 169.29 94.5 
L 169.4574 94.5 
L 169.7922 91.2384 
L 170.127 94.5 
L 170.2944 91.2384 
L 170.4618 79.8228 
L 170.6292 81.4536 
L 170.7966 84.7152 
L 170.964 83.0844 
L 171.1314 79.8228 
L 171.2988 87.9768 
L 171.4662 86.346 
L 171.801 53.73 
L 171.9684 63.5148 
L 172.1358 63.5148 
L 172.3032 52.0992 
L 172.4706 27.6372 
L 172.8054 76.5612 
L 172.9728 66.7764 
L 173.1402 71.6688 
L 173.3076 66.7764 
L 173.475 87.9768 
L 173.6424 73.2996 
L 173.8098 74.9304 
L 173.9772 84.7152 
L 174.1446 83.0844 
L 174.4794 94.5 
L 174.6468 94.5 
L 174.8142 92.8692 
L 174.9816 94.5 
L 175.149 94.5 
L 175.6512 61.884 
L 175.8186 45.576 
L 175.986 70.038 
L 176.1534 61.884 
L 176.3208 71.6688 
L 176.4882 89.6076 
L 176.6556 84.7152 
L 176.9904 92.8692 
L 177.1578 91.2384 
L 177.3252 86.346 
L 177.66 65.1456 
L 177.9948 73.2996 
L 178.1622 78.192 
L 178.3296 86.346 
L 178.497 87.9768 
L 178.6644 91.2384 
L 178.8318 91.2384 
L 179.1666 94.5 
L 179.334 79.8228 
L 179.5014 74.9304 
L 179.6688 84.7152 
L 179.8362 87.9768 
L 180.0036 78.192 
L 180.171 74.9304 
L 180.3384 47.2068 
L 180.5058 65.1456 
L 180.6732 63.5148 
L 180.8406 66.7764 
L 181.008 86.346 
L 181.1754 87.9768 
L 181.3428 79.8228 
L 181.5102 91.2384 
L 181.6776 91.2384 
L 182.1798 74.9304 
L 182.3472 60.2532 
L 182.682 92.8692 
L 182.8494 91.2384 
L 183.0168 87.9768 
L 183.1842 79.8228 
L 183.3516 50.4684 
L 183.519 42.3144 
L 183.8538 60.2532 
L 184.0212 73.2996 
L 184.356 35.7912 
L 184.5234 42.3144 
L 184.6908 68.4072 
L 184.8582 29.268 
L 185.193 89.6076 
L 185.3604 86.346 
L 185.5278 87.9768 
L 185.8626 87.9768 
L 186.03 84.7152 
L 186.1974 92.8692 
L 186.3648 94.5 
L 186.5322 94.5 
L 186.6996 91.2384 
L 186.867 94.5 
L 187.0344 94.5 
L 187.2018 84.7152 
L 187.3692 94.5 
L 187.5366 92.8692 
L 187.704 92.8692 
L 187.8714 94.5 
L 188.2062 84.7152 
L 188.3736 84.7152 
L 188.541 76.5612 
L 188.7084 52.0992 
L 189.0432 78.192 
L 189.2106 48.8376 
L 189.378 63.5148 
L 189.5454 68.4072 
L 189.7128 63.5148 
L 190.0476 87.9768 
L 190.215 86.346 
L 190.3824 81.4536 
L 190.5498 63.5148 
L 190.8846 87.9768 
L 191.052 87.9768 
L 191.3868 53.73 
L 191.5542 55.3608 
L 191.7216 45.576 
L 191.889 61.884 
L 192.0564 61.884 
L 192.2238 55.3608 
L 192.3912 78.192 
L 192.5586 78.192 
L 192.726 81.4536 
L 192.8934 71.6688 
L 193.2282 84.7152 
L 193.563 92.8692 
L 193.7304 83.0844 
L 193.8978 87.9768 
L 194.0652 86.346 
L 194.2326 87.9768 
L 194.4 92.8692 
L 194.5674 91.2384 
L 194.5674 91.2384 
" style="fill:none;stroke:#000000;stroke-linecap:square;stroke-width:0.5;"/>
   </g>
   <g id="patch_3">
    <path d="M 27 94.5 
L 27 12.96 
" style="fill:none;stroke:#000000;stroke-linecap:square;stroke-linejoin:miter;stroke-width:0.5;"/>
   </g>
   <g id="patch_4">
    <path d="M 194.4 94.5 
L 194.4 12.96 
" style="fill:none;stroke:#000000;stroke-linecap:square;stroke-linejoin:miter;stroke-width:0.5;"/>
   </g>
   <g id="patch_5">
    <path d="M 27 94.5 
L 194.4 94.5 
" style="fill:none;stroke:#000000;stroke-linecap:square;stroke-linejoin:miter;stroke-width:0.5;"/>
   </g>
   <g id="patch_6">
    <path d="M 27 12.96 
L 194.4 12.96 
" style="fill:none;stroke:#000000;stroke-linecap:square;stroke-linejoin:miter;stroke-width:0.5;"/>
   </g>
  </g>
 </g>
 <defs>
  <clipPath id="pbe54b962ec">
   <rect height="81.54" width="167.4" x="27" y="12.96"/>
  </clipPath>
 </defs>
</svg>
