<?xml version="1.0" encoding="utf-8" standalone="no"?>
<!DOCTYPE svg PUBLIC "-//W3C//DTD SVG 1.1//EN"
  "http://www.w3.org/Graphics/SVG/1.1/DTD/svg11.dtd">
<!-- Created with matplotlib (http://matplotlib.org/) -->
<svg height="144pt" version="1.1" viewBox="0 0 216 144" width="216pt" xmlns="http://www.w3.org/2000/svg" xmlns:xlink="http://www.w3.org/1999/xlink">
 <defs>
  <style type="text/css">
*{stroke-linecap:butt;stroke-linejoin:round;}
  </style>
 </defs>
 <g id="figure_1">
  <g id="patch_1">
   <path d="M 0 144 
L 216 144 
L 216 0 
L 0 0 
z
" style="fill:none;"/>
  </g>
  <g id="axes_1">
   <g id="patch_2">
    <path d="M 27 126 
L 194.4 126 
L 194.4 17.28 
L 27 17.28 
z
" style="fill:none;"/>
   </g>
   <g id="matplotlib.axis_1">
    <g id="text_1">
     <text style="font-family:DejaVu Sans;font-size:10px;font-style:normal;font-weight:400;text-anchor:middle;" transform="rotate(-0, 110.7, 137.598437)" x="110.7" y="137.598437">time/s</text>
    </g>
   </g>
   <g id="matplotlib.axis_2">
    <g id="text_2">
     <text style="font-family:DejaVu Sans;font-size:10px;font-style:normal;font-weight:400;text-anchor:middle;" transform="rotate(-90, 20.920312, 71.64)" x="20.920312" y="71.64">counts/s</text>
    </g>
   </g>
   <g id="line2d_1">
    <path clip-path="url(#p3d429079e8)" d="M 27 126 
L 27.098471 126 
L 27.295412 123.282 
L 27.393882 126 
L 27.590824 120.564 
L 27.787765 126 
L 27.886235 120.564 
L 27.984706 126 
L 28.083176 123.282 
L 28.181647 115.128 
L 28.280118 123.282 
L 28.378588 120.564 
L 28.575529 126 
L 28.772471 123.282 
L 28.969412 126 
L 29.166353 123.282 
L 29.264824 126 
L 29.363294 123.282 
L 29.560235 126 
L 29.757176 126 
L 29.954118 120.564 
L 30.052588 126 
L 30.151059 120.564 
L 30.249529 126 
L 30.544941 49.896 
L 30.741882 68.922 
L 30.840353 55.332 
L 30.938824 63.486 
L 31.135765 49.896 
L 31.234235 49.896 
L 31.431176 85.23 
L 31.529647 47.178 
L 31.628118 49.896 
L 31.726588 63.486 
L 31.825059 47.178 
L 31.923529 68.922 
L 32.022 52.614 
L 32.120471 71.64 
L 32.218941 22.716 
L 32.317412 49.896 
L 32.415882 19.998 
L 32.514353 82.512 
L 32.612824 58.05 
L 32.711294 60.768 
L 32.809765 79.794 
L 32.908235 60.768 
L 33.006706 63.486 
L 33.105176 47.178 
L 33.203647 85.23 
L 33.302118 58.05 
L 33.499059 74.358 
L 33.597529 28.152 
L 33.696 58.05 
L 33.892941 52.614 
L 33.991412 66.204 
L 34.188353 33.588 
L 34.385294 68.922 
L 34.483765 66.204 
L 34.582235 93.384 
L 34.779176 52.614 
L 34.877647 71.64 
L 34.976118 33.588 
L 35.074588 74.358 
L 35.173059 47.178 
L 35.271529 82.512 
L 35.37 77.076 
L 35.566941 44.46 
L 35.665412 71.64 
L 35.763882 58.05 
L 35.862353 63.486 
L 35.960824 55.332 
L 36.059294 60.768 
L 36.157765 58.05 
L 36.256235 60.768 
L 36.453176 77.076 
L 36.551647 71.64 
L 36.748588 126 
L 36.847059 120.564 
L 36.945529 123.282 
L 37.044 120.564 
L 37.240941 126 
L 37.536353 126 
L 37.733294 123.282 
L 37.930235 126 
L 38.028706 123.282 
L 38.225647 126 
L 38.324118 126 
L 38.422588 123.282 
L 38.521059 126 
L 38.619529 120.564 
L 38.816471 126 
L 38.914941 123.282 
L 39.013412 126 
L 39.111882 120.564 
L 39.407294 126 
L 39.604235 126 
L 39.702706 123.282 
L 39.899647 126 
L 40.096588 120.564 
L 40.195059 126 
L 40.392 123.282 
L 40.490471 126 
L 40.687412 117.846 
L 40.785882 123.282 
L 40.884353 120.564 
L 41.081294 126 
L 41.475176 126 
L 41.672118 123.282 
L 41.770588 126 
L 41.869059 120.564 
L 42.164471 126 
L 42.262941 120.564 
L 42.361412 126 
L 42.558353 123.282 
L 42.656824 126 
L 42.853765 120.564 
L 43.149176 126 
L 43.444588 120.564 
L 43.543059 120.564 
L 43.838471 126 
L 43.936941 126 
L 44.035412 120.564 
L 44.232353 123.282 
L 44.330824 120.564 
L 44.527765 126 
L 44.724706 120.564 
L 44.921647 126 
L 45.020118 126 
L 45.118588 123.282 
L 45.217059 126 
L 45.414 117.846 
L 45.512471 126 
L 45.610941 120.564 
L 45.807882 123.282 
L 45.906353 123.282 
L 46.103294 126 
L 46.201765 126 
L 46.300235 120.564 
L 46.497176 126 
L 46.595647 120.564 
L 46.792588 126 
L 46.891059 126 
L 46.989529 120.564 
L 47.088 126 
L 47.186471 123.282 
L 47.284941 126 
L 47.383412 123.282 
L 47.481882 126 
L 47.580353 120.564 
L 47.678824 87.948 
L 47.777294 90.666 
L 47.875765 85.23 
L 48.269647 39.024 
L 48.368118 71.64 
L 48.466588 52.614 
L 48.565059 85.23 
L 48.663529 52.614 
L 48.860471 79.794 
L 49.057412 63.486 
L 49.155882 90.666 
L 49.352824 52.614 
L 49.451294 68.922 
L 49.648235 58.05 
L 49.746706 60.768 
L 50.042118 96.102 
L 50.239059 58.05 
L 50.337529 90.666 
L 50.436 79.794 
L 50.534471 90.666 
L 50.632941 74.358 
L 50.731412 77.076 
L 50.829882 87.948 
L 50.928353 55.332 
L 51.026824 79.794 
L 51.125294 60.768 
L 51.223765 71.64 
L 51.420706 33.588 
L 51.617647 68.922 
L 51.814588 49.896 
L 52.011529 58.05 
L 52.208471 71.64 
L 52.306941 90.666 
L 52.503882 60.768 
L 52.602353 52.614 
L 52.700824 79.794 
L 52.799294 41.742 
L 52.996235 93.384 
L 53.390118 47.178 
L 53.488588 87.948 
L 53.587059 36.306 
L 53.784 79.794 
L 53.882471 58.05 
L 53.980941 63.486 
L 54.079412 87.948 
L 54.276353 55.332 
L 54.473294 85.23 
L 54.571765 63.486 
L 54.670235 82.512 
L 54.768706 55.332 
L 54.867176 82.512 
L 55.064118 52.614 
L 55.162588 93.384 
L 55.261059 39.024 
L 55.458 68.922 
L 55.753412 22.716 
L 55.851882 58.05 
L 55.950353 55.332 
L 56.147294 71.64 
L 56.344235 79.794 
L 56.442706 60.768 
L 56.639647 77.076 
L 56.836588 44.46 
L 57.033529 126 
L 57.230471 68.922 
L 57.328941 71.64 
L 57.525882 52.614 
L 57.624353 55.332 
L 57.821294 123.282 
L 57.919765 126 
L 58.018235 120.564 
L 58.313647 126 
L 58.412118 126 
L 58.510588 123.282 
L 58.609059 126 
L 58.806 123.282 
L 58.904471 126 
L 59.002941 120.564 
L 59.199882 126 
L 59.298353 126 
L 59.396824 120.564 
L 59.593765 123.282 
L 59.692235 120.564 
L 59.889176 126 
L 60.184588 120.564 
L 60.48 126 
L 60.676941 120.564 
L 60.775412 126 
L 60.873882 123.282 
L 61.070824 63.486 
L 61.267765 77.076 
L 61.366235 87.948 
L 61.563176 82.512 
L 61.661647 74.358 
L 61.760118 49.896 
L 61.858588 123.282 
L 61.957059 115.128 
L 62.154 123.282 
L 62.252471 126 
L 62.547882 44.46 
L 62.744824 74.358 
L 62.843294 60.768 
L 63.040235 126 
L 63.138706 123.282 
L 63.237176 126 
L 63.335647 115.128 
L 63.532588 55.332 
L 63.631059 74.358 
L 63.926471 58.05 
L 64.024941 77.076 
L 64.123412 52.614 
L 64.320353 90.666 
L 64.517294 52.614 
L 64.615765 90.666 
L 64.714235 55.332 
L 64.812706 85.23 
L 64.911176 52.614 
L 65.009647 68.922 
L 65.108118 66.204 
L 65.206588 96.102 
L 65.305059 90.666 
L 65.403529 25.434 
L 65.502 60.768 
L 65.600471 49.896 
L 65.698941 74.358 
L 65.895882 60.768 
L 65.994353 49.896 
L 66.092824 58.05 
L 66.191294 85.23 
L 66.289765 49.896 
L 66.486706 71.64 
L 66.585176 58.05 
L 66.683647 63.486 
L 66.782118 90.666 
L 66.880588 60.768 
L 66.979059 74.358 
L 67.077529 55.332 
L 67.372941 82.512 
L 67.569882 30.87 
L 67.668353 74.358 
L 67.766824 52.614 
L 67.865294 58.05 
L 68.062235 47.178 
L 68.160706 58.05 
L 68.357647 126 
L 68.554588 126 
L 68.653059 123.282 
L 68.751529 126 
L 68.948471 123.282 
L 69.145412 126 
L 69.243882 87.948 
L 69.440824 126 
L 69.637765 120.564 
L 69.736235 120.564 
L 69.933176 126 
L 70.130118 123.282 
L 70.228588 126 
L 70.327059 123.282 
L 70.425529 126 
L 70.524 123.282 
L 70.622471 126 
L 70.917882 120.564 
L 71.016353 123.282 
L 71.114824 115.128 
L 71.311765 123.282 
L 71.410235 112.41 
L 71.508706 126 
L 71.607176 123.282 
L 71.804118 126 
L 71.902588 117.846 
L 72.099529 123.282 
L 72.198 126 
L 72.394941 120.564 
L 72.493412 126 
L 72.591882 123.282 
L 72.788824 126 
L 72.985765 120.564 
L 73.182706 126 
L 73.281176 123.282 
L 73.379647 126 
L 73.478118 120.564 
L 73.675059 126 
L 73.872 123.282 
L 73.970471 126 
L 74.167412 123.282 
L 74.265882 123.282 
L 74.364353 126 
L 74.462824 120.564 
L 74.758235 126 
L 74.856706 126 
L 75.053647 120.564 
L 75.152118 126 
L 75.349059 120.564 
L 75.447529 126 
L 75.546 123.282 
L 75.742941 126 
L 75.841412 126 
L 75.939882 123.282 
L 76.136824 126 
L 76.235294 126 
L 76.333765 117.846 
L 76.530706 123.282 
L 76.629176 120.564 
L 76.727647 123.282 
L 76.826118 117.846 
L 77.023059 123.282 
L 77.121529 123.282 
L 77.318471 126 
L 77.416941 126 
L 77.515412 123.282 
L 77.613882 115.128 
L 77.810824 126 
L 77.909294 126 
L 78.007765 117.846 
L 78.204706 126 
L 78.303176 123.282 
L 78.500118 126 
L 78.598588 123.282 
L 78.697059 126 
L 78.894 123.282 
L 79.090941 77.076 
L 79.189412 82.512 
L 79.287882 74.358 
L 79.386353 82.512 
L 79.484824 68.922 
L 79.583294 85.23 
L 79.681765 79.794 
L 79.878706 126 
L 80.469529 126 
L 80.666471 123.282 
L 80.863412 126 
L 80.961882 126 
L 81.158824 120.564 
L 81.257294 123.282 
L 81.355765 120.564 
L 81.651176 126 
L 81.749647 120.564 
L 81.848118 123.282 
L 81.946588 120.564 
L 82.143529 126 
L 82.242 126 
L 82.438941 123.282 
L 82.537412 123.282 
L 82.635882 120.564 
L 82.832824 126 
L 82.931294 120.564 
L 83.128235 126 
L 83.226706 123.282 
L 83.325176 126 
L 83.423647 120.564 
L 83.719059 126 
L 83.817529 126 
L 83.916 115.128 
L 84.014471 117.846 
L 84.211412 126 
L 84.309882 126 
L 84.408353 123.282 
L 84.506824 126 
L 84.605294 115.128 
L 84.703765 126 
L 84.900706 120.564 
L 85.097647 126 
L 85.393059 117.846 
L 85.59 126 
L 85.786941 117.846 
L 85.885412 126 
L 86.082353 33.588 
L 86.279294 126 
L 86.377765 123.282 
L 86.574706 126 
L 86.673176 126 
L 86.870118 120.564 
L 86.968588 126 
L 87.165529 123.282 
L 87.264 126 
L 87.460941 120.564 
L 87.756353 126 
L 87.854824 123.282 
L 88.051765 126 
L 88.248706 120.564 
L 88.445647 126 
L 88.544118 126 
L 88.741059 120.564 
L 88.839529 126 
L 88.938 123.282 
L 89.134941 126 
L 89.233412 120.564 
L 89.331882 126 
L 89.430353 120.564 
L 89.528824 126 
L 89.725765 87.948 
L 89.824235 58.05 
L 89.922706 74.358 
L 90.021176 39.024 
L 90.119647 60.768 
L 90.218118 58.05 
L 90.316588 60.768 
L 90.415059 79.794 
L 90.513529 58.05 
L 90.612 126 
L 90.710471 123.282 
L 90.907412 120.564 
L 91.005882 126 
L 91.104353 120.564 
L 91.399765 126 
L 91.498235 126 
L 91.596706 120.564 
L 91.695176 126 
L 91.990588 120.564 
L 92.187529 126 
L 92.286 126 
L 92.384471 120.564 
L 92.482941 126 
L 92.581412 123.282 
L 92.679882 126 
L 92.778353 120.564 
L 92.975294 126 
L 93.073765 117.846 
L 93.270706 126 
L 93.467647 126 
L 93.566118 120.564 
L 93.664588 126 
L 93.763059 120.564 
L 93.96 126 
L 94.156941 120.564 
L 94.255412 123.282 
L 94.452353 117.846 
L 94.649294 126 
L 94.747765 126 
L 94.846235 123.282 
L 94.944706 126 
L 95.141647 120.564 
L 95.240118 126 
L 95.338588 123.282 
L 95.437059 126 
L 95.535529 120.564 
L 95.732471 126 
L 95.929412 123.282 
L 96.027882 123.282 
L 96.126353 126 
L 96.224824 120.564 
L 96.323294 126 
L 96.421765 55.332 
L 96.618706 85.23 
L 96.717176 87.948 
L 96.815647 77.076 
L 96.914118 79.794 
L 97.012588 93.384 
L 97.111059 47.178 
L 97.504941 79.794 
L 97.603412 55.332 
L 97.701882 58.05 
L 97.800353 79.794 
L 97.898824 66.204 
L 97.997294 77.076 
L 98.095765 74.358 
L 98.292706 49.896 
L 98.391176 85.23 
L 98.489647 58.05 
L 98.588118 66.204 
L 98.686588 60.768 
L 98.785059 74.358 
L 98.883529 55.332 
L 98.982 77.076 
L 99.080471 55.332 
L 99.178941 77.076 
L 99.277412 55.332 
L 99.375882 66.204 
L 99.474353 47.178 
L 99.769765 63.486 
L 99.868235 55.332 
L 100.065176 66.204 
L 100.163647 71.64 
L 100.262118 58.05 
L 100.459059 68.922 
L 100.557529 25.434 
L 100.656 63.486 
L 100.754471 49.896 
L 100.852941 68.922 
L 101.049882 60.768 
L 101.148353 66.204 
L 101.246824 36.306 
L 101.345294 39.024 
L 101.542235 63.486 
L 101.640706 30.87 
L 101.837647 77.076 
L 101.936118 28.152 
L 102.034588 60.768 
L 102.133059 49.896 
L 102.428471 77.076 
L 102.526941 66.204 
L 102.625412 82.512 
L 102.723882 60.768 
L 102.822353 106.974 
L 103.019294 58.05 
L 103.117765 41.742 
L 103.216235 77.076 
L 103.314706 66.204 
L 103.413176 90.666 
L 103.610118 25.434 
L 103.807059 126 
L 104.004 120.564 
L 104.102471 123.282 
L 104.200941 115.128 
L 104.496353 126 
L 104.594824 120.564 
L 104.693294 126 
L 104.791765 120.564 
L 104.890235 126 
L 104.988706 123.282 
L 105.087176 126 
L 105.185647 123.282 
L 105.284118 126 
L 105.382588 123.282 
L 105.579529 126 
L 105.678 120.564 
L 105.776471 126 
L 105.874941 123.282 
L 105.973412 126 
L 106.170353 123.282 
L 106.268824 123.282 
L 106.367294 126 
L 106.564235 123.282 
L 106.662706 123.282 
L 106.761176 126 
L 106.859647 117.846 
L 106.958118 126 
L 107.155059 120.564 
L 107.352 123.282 
L 107.548941 123.282 
L 107.647412 126 
L 107.745882 123.282 
L 107.844353 126 
L 107.942824 120.564 
L 108.238235 126 
L 108.435176 126 
L 108.533647 120.564 
L 108.730588 126 
L 108.829059 126 
L 108.927529 120.564 
L 109.124471 126 
L 109.419882 120.564 
L 109.616824 126 
L 109.813765 117.846 
L 110.010706 126 
L 110.109176 109.692 
L 110.306118 123.282 
L 110.404588 126 
L 110.503059 120.564 
L 110.7 126 
L 110.798471 126 
L 110.896941 120.564 
L 111.093882 123.282 
L 111.192353 123.282 
L 111.389294 126 
L 111.487765 117.846 
L 111.881647 126 
L 111.980118 126 
L 112.177059 120.564 
L 112.275529 123.282 
L 112.374 120.564 
L 112.472471 126 
L 112.669412 120.564 
L 112.767882 126 
L 112.866353 120.564 
L 113.063294 126 
L 113.161765 123.282 
L 113.260235 126 
L 113.358706 123.282 
L 113.457176 126 
L 113.555647 120.564 
L 113.654118 123.282 
L 113.752588 120.564 
L 113.949529 126 
L 114.048 123.282 
L 114.146471 126 
L 114.343412 123.282 
L 114.737294 123.282 
L 114.934235 126 
L 115.032706 115.128 
L 115.229647 126 
L 115.328118 126 
L 115.525059 123.282 
L 115.722 123.282 
L 115.918941 126 
L 116.214353 120.564 
L 116.411294 126 
L 116.706706 120.564 
L 116.903647 126 
L 117.100588 126 
L 117.199059 123.282 
L 117.297529 126 
L 117.396 123.282 
L 117.592941 126 
L 117.691412 126 
L 117.789882 123.282 
L 117.986824 126 
L 118.085294 115.128 
L 118.282235 123.282 
L 118.380706 120.564 
L 118.577647 126 
L 118.774588 120.564 
L 119.07 126 
L 119.266941 126 
L 119.463882 117.846 
L 119.562353 126 
L 119.759294 123.282 
L 119.956235 126 
L 120.054706 126 
L 120.153176 120.564 
L 120.448588 126 
L 120.547059 123.282 
L 120.744 126 
L 120.940941 123.282 
L 121.137882 123.282 
L 121.236353 126 
L 121.334824 120.564 
L 121.433294 126 
L 121.728706 117.846 
L 121.827176 126 
L 121.925647 123.282 
L 122.122588 126 
L 122.418 126 
L 122.516471 123.282 
L 122.713412 126 
L 122.910353 126 
L 123.008824 123.282 
L 123.205765 126 
L 123.304235 126 
L 123.501176 120.564 
L 123.698118 123.282 
L 123.993529 123.282 
L 124.190471 126 
L 124.288941 126 
L 124.387412 120.564 
L 124.682824 126 
L 124.978235 126 
L 125.076706 123.282 
L 125.273647 126 
L 125.470588 120.564 
L 125.569059 123.282 
L 125.667529 120.564 
L 125.962941 126 
L 126.159882 126 
L 126.356824 123.282 
L 126.455294 126 
L 126.553765 120.564 
L 126.750706 126 
L 126.947647 123.282 
L 127.046118 123.282 
L 127.243059 126 
L 127.44 126 
L 127.636941 117.846 
L 127.833882 123.282 
L 128.030824 115.128 
L 128.227765 126 
L 128.326235 115.128 
L 128.523176 126 
L 128.621647 120.564 
L 128.818588 126 
L 128.917059 123.282 
L 129.015529 126 
L 129.212471 120.564 
L 129.409412 126 
L 129.507882 123.282 
L 129.606353 126 
L 129.704824 123.282 
L 129.901765 126 
L 130.000235 123.282 
L 130.197176 49.896 
L 130.394118 96.102 
L 130.492588 87.948 
L 130.591059 74.358 
L 130.689529 90.666 
L 130.788 49.896 
L 130.886471 79.794 
L 130.984941 74.358 
L 131.181882 79.794 
L 131.280353 93.384 
L 131.477294 77.076 
L 131.575765 123.282 
L 131.674235 120.564 
L 131.772706 115.128 
L 131.969647 126 
L 132.068118 117.846 
L 132.265059 126 
L 132.560471 126 
L 132.757412 123.282 
L 132.954353 126 
L 133.052824 126 
L 133.151294 120.564 
L 133.446706 126 
L 133.545176 117.846 
L 133.742118 126 
L 133.939059 120.564 
L 134.136 126 
L 134.332941 123.282 
L 134.529882 126 
L 134.825294 126 
L 135.022235 120.564 
L 135.120706 126 
L 135.219176 120.564 
L 135.416118 126 
L 135.514588 120.564 
L 135.711529 126 
L 135.81 123.282 
L 135.908471 126 
L 136.006941 123.282 
L 136.203882 126 
L 136.302353 126 
L 136.400824 115.128 
L 136.696235 126 
L 137.188588 126 
L 137.287059 123.282 
L 137.385529 126 
L 137.484 117.846 
L 137.680941 126 
L 137.779412 126 
L 137.877882 123.282 
L 138.074824 55.332 
L 138.173294 93.384 
L 138.271765 74.358 
L 138.468706 98.82 
L 138.567176 55.332 
L 138.665647 93.384 
L 138.764118 87.948 
L 138.961059 55.332 
L 139.059529 96.102 
L 139.158 90.666 
L 139.256471 93.384 
L 139.354941 52.614 
L 139.453412 63.486 
L 139.551882 36.306 
L 139.748824 96.102 
L 139.945765 68.922 
L 140.044235 85.23 
L 140.241176 52.614 
L 140.339647 58.05 
L 140.438118 90.666 
L 140.536588 82.512 
L 140.635059 85.23 
L 140.930471 74.358 
L 141.028941 85.23 
L 141.127412 77.076 
L 141.225882 82.512 
L 141.422824 63.486 
L 141.619765 74.358 
L 141.718235 74.358 
L 141.816706 87.948 
L 141.915176 74.358 
L 142.013647 77.076 
L 142.210588 104.256 
L 142.407529 68.922 
L 142.506 68.922 
L 142.702941 85.23 
L 142.801412 63.486 
L 143.096824 90.666 
L 143.195294 93.384 
L 143.293765 71.64 
L 143.392235 98.82 
L 143.490706 66.204 
L 143.589176 82.512 
L 143.786118 66.204 
L 143.884588 52.614 
L 143.983059 55.332 
L 144.081529 85.23 
L 144.18 66.204 
L 144.376941 126 
L 144.475412 126 
L 144.573882 117.846 
L 144.770824 123.282 
L 144.869294 120.564 
L 144.967765 123.282 
L 145.066235 117.846 
L 145.263176 126 
L 145.460118 123.282 
L 145.657059 126 
L 145.952471 126 
L 146.050941 123.282 
L 146.247882 126 
L 146.543294 126 
L 146.641765 120.564 
L 146.838706 126 
L 147.232588 126 
L 147.331059 123.282 
L 147.429529 126 
L 147.528 123.282 
L 147.724941 126 
L 147.823412 123.282 
L 147.921882 126 
L 148.020353 123.282 
L 148.217294 126 
L 148.315765 126 
L 148.414235 120.564 
L 148.512706 126 
L 148.611176 123.282 
L 148.808118 126 
L 148.906588 126 
L 149.005059 123.282 
L 149.103529 126 
L 149.202 120.564 
L 149.300471 126 
L 149.398941 123.282 
L 149.595882 126 
L 149.694353 123.282 
L 149.792824 126 
L 149.891294 120.564 
L 150.186706 126 
L 150.383647 123.282 
L 150.580588 126 
L 150.777529 120.564 
L 150.974471 126 
L 151.368353 126 
L 151.466824 123.282 
L 151.565294 126 
L 151.663765 120.564 
L 151.860706 126 
L 152.55 126 
L 152.648471 120.564 
L 152.943882 126 
L 153.239294 126 
L 153.337765 123.282 
L 153.534706 126 
L 153.830118 126 
L 153.928588 123.282 
L 154.125529 126 
L 154.224 120.564 
L 154.420941 126 
L 154.617882 126 
L 154.814824 123.282 
L 155.011765 126 
L 155.110235 123.282 
L 155.208706 126 
L 155.307176 123.282 
L 155.504118 126 
L 155.602588 120.564 
L 155.799529 123.282 
L 156.094941 123.282 
L 156.193412 126 
L 156.291882 123.282 
L 156.488824 126 
L 156.882706 126 
L 156.981176 120.564 
L 157.079647 126 
L 157.178118 123.282 
L 157.276588 126 
L 157.473529 123.282 
L 157.572 123.282 
L 157.768941 126 
L 158.162824 126 
L 158.261294 123.282 
L 158.458235 126 
L 158.556706 123.282 
L 158.753647 126 
L 158.950588 126 
L 159.147529 123.282 
L 159.344471 126 
L 159.442941 126 
L 159.639882 123.282 
L 159.836824 126 
L 160.033765 126 
L 160.132235 120.564 
L 160.329176 126 
L 160.526118 123.282 
L 160.723059 126 
L 160.821529 123.282 
L 161.018471 126 
L 161.116941 123.282 
L 161.313882 126 
L 162.003176 126 
L 162.101647 123.282 
L 162.200118 126 
L 162.298588 120.564 
L 162.495529 126 
L 162.889412 126 
L 162.987882 123.282 
L 163.184824 126 
L 163.972588 126 
L 164.071059 117.846 
L 164.268 126 
L 164.366471 126 
L 164.464941 123.282 
L 164.661882 126 
L 164.760353 123.282 
L 164.957294 126 
L 165.548118 126 
L 165.646588 123.282 
L 165.745059 126 
L 165.843529 120.564 
L 165.942 126 
L 166.040471 120.564 
L 166.237412 126 
L 166.335882 120.564 
L 166.532824 126 
L 166.729765 126 
L 166.828235 123.282 
L 167.025176 126 
L 167.123647 123.282 
L 167.320588 126 
L 167.419059 123.282 
L 167.616 126 
L 167.812941 126 
L 168.009882 123.282 
L 168.108353 126 
L 168.305294 123.282 
L 168.502235 126 
L 168.600706 123.282 
L 168.699176 126 
L 168.896118 123.282 
L 169.093059 126 
L 169.388471 126 
L 169.486941 123.282 
L 169.683882 126 
L 169.979294 126 
L 170.176235 123.282 
L 170.274706 123.282 
L 170.373176 120.564 
L 170.471647 126 
L 170.570118 117.846 
L 170.767059 126 
L 170.964 117.846 
L 171.160941 126 
L 171.357882 123.282 
L 171.554824 126 
L 171.751765 117.846 
L 171.850235 123.282 
L 171.948706 117.846 
L 172.145647 126 
L 172.244118 126 
L 172.342588 123.282 
L 172.539529 126 
L 173.130353 126 
L 173.228824 123.282 
L 173.327294 126 
L 173.425765 123.282 
L 173.524235 126 
L 173.622706 123.282 
L 173.819647 126 
L 174.312 126 
L 174.508941 120.564 
L 174.705882 126 
L 175.001294 126 
L 175.099765 120.564 
L 175.198235 126 
L 175.296706 123.282 
L 175.395176 126 
L 175.592118 123.282 
L 175.690588 123.282 
L 175.789059 120.564 
L 175.887529 123.282 
L 175.986 120.564 
L 176.182941 126 
L 176.281412 126 
L 176.379882 123.282 
L 176.478353 126 
L 176.576824 123.282 
L 176.773765 126 
L 176.872235 126 
L 176.970706 123.282 
L 177.167647 126 
L 177.66 126 
L 177.758471 120.564 
L 177.856941 126 
L 178.053882 120.564 
L 178.250824 126 
L 178.349294 123.282 
L 178.447765 126 
L 178.644706 120.564 
L 178.940118 126 
L 179.137059 123.282 
L 179.235529 123.282 
L 179.334 126 
L 179.432471 123.282 
L 179.530941 126 
L 179.727882 123.282 
L 179.826353 123.282 
L 180.023294 126 
L 180.220235 123.282 
L 180.417176 126 
L 180.614118 123.282 
L 180.811059 123.282 
L 181.008 126 
L 181.303412 120.564 
L 181.500353 126 
L 181.598824 123.282 
L 181.697294 126 
L 181.795765 123.282 
L 181.992706 126 
L 182.189647 126 
L 182.288118 123.282 
L 182.485059 126 
L 182.583529 123.282 
L 182.682 126 
L 182.878941 123.282 
L 183.075882 126 
L 183.174353 126 
L 183.272824 120.564 
L 183.371294 126 
L 183.666706 120.564 
L 183.863647 126 
L 183.962118 126 
L 184.060588 123.282 
L 184.257529 126 
L 184.356 123.282 
L 184.454471 126 
L 184.552941 123.282 
L 184.651412 126 
L 184.749882 123.282 
L 184.946824 126 
L 185.636118 126 
L 185.734588 123.282 
L 185.833059 126 
L 185.931529 117.846 
L 186.03 126 
L 186.128471 120.564 
L 186.325412 126 
L 186.423882 120.564 
L 186.620824 126 
L 186.719294 123.282 
L 186.817765 126 
L 187.113176 117.846 
L 187.310118 123.282 
L 187.507059 126 
L 187.900941 126 
L 187.999412 123.282 
L 188.196353 126 
L 188.294824 123.282 
L 188.491765 126 
L 188.590235 123.282 
L 188.787176 126 
L 189.476471 126 
L 189.673412 123.282 
L 189.870353 126 
L 190.165765 126 
L 190.264235 123.282 
L 190.362706 126 
L 190.559647 123.282 
L 190.756588 123.282 
L 190.855059 126 
L 190.953529 123.282 
L 191.052 126 
L 191.150471 120.564 
L 191.248941 126 
L 191.347412 117.846 
L 191.544353 126 
L 191.642824 117.846 
L 192.036706 126 
L 192.135176 123.282 
L 192.332118 126 
L 192.529059 123.282 
L 192.726 126 
L 193.021412 126 
L 193.218353 123.282 
L 193.316824 123.282 
L 193.513765 126 
L 193.809176 126 
L 193.907647 123.282 
L 194.104588 126 
L 194.203059 126 
L 194.301529 123.282 
L 194.498471 126 
L 194.498471 126 
" style="fill:none;stroke:#000000;stroke-linecap:square;stroke-width:0.5;"/>
   </g>
   <g id="patch_3">
    <path d="M 27 126 
L 27 17.28 
" style="fill:none;stroke:#000000;stroke-linecap:square;stroke-linejoin:miter;stroke-width:0.5;"/>
   </g>
   <g id="patch_4">
    <path d="M 194.4 126 
L 194.4 17.28 
" style="fill:none;stroke:#000000;stroke-linecap:square;stroke-linejoin:miter;stroke-width:0.5;"/>
   </g>
   <g id="patch_5">
    <path d="M 27 126 
L 194.4 126 
" style="fill:none;stroke:#000000;stroke-linecap:square;stroke-linejoin:miter;stroke-width:0.5;"/>
   </g>
   <g id="patch_6">
    <path d="M 27 17.28 
L 194.4 17.28 
" style="fill:none;stroke:#000000;stroke-linecap:square;stroke-linejoin:miter;stroke-width:0.5;"/>
   </g>
  </g>
 </g>
 <defs>
  <clipPath id="p3d429079e8">
   <rect height="108.72" width="167.4" x="27" y="17.28"/>
  </clipPath>
 </defs>
</svg>
